<?xml version="1.0" encoding="utf-8"?>
<!-- Generator: Adobe Adobe Illustrator 24.2.0, SVG Export Plug-In . SVG Version: 6.00 Build 0)  -->
<svg version="1.1" id="Layer_1" xmlns="http://www.w3.org/2000/svg" xmlns:xlink="http://www.w3.org/1999/xlink" x="0px" y="0px"
	 width="12px" height="12px" viewBox="0 0 40 40" style="enable-background:new 0 0 40 40;" xml:space="preserve">
<style type="text/css">
	.st0{fill:none;stroke:#F74EA7;stroke-miterlimit:10;}
	.st1{fill:#FFFFFF;}
	.st2{fill:#F82790;}
	.st3{fill:#F62C8D;}
	.st4{fill:#F52D8D;}
	.st5{fill:#F42E8D;stroke:#F52D8D;stroke-miterlimit:10;}
	.st6{opacity:0.5686;stroke:#000000;stroke-miterlimit:10;}
	.st7{opacity:0.5686;fill:#FFFFFF;stroke:#FFFFFF;stroke-miterlimit:10;}
</style>
<g>
	<g>
		<path class="st3" d="M6.63,11.8c1.11-0.95,2.27-1.81,3.61-2.42c0.45-0.2,0.92-0.33,1.37-0.53c-1.02,0.3-2.04,0.59-3.06,0.89
			C8.77,9.72,8.99,9.7,9.21,9.69c0.81-0.04,1.62,0.03,2.42,0.19c3.09,0.63,5.85,2.35,8.95,3c3.16,0.67,5.94,0.16,8.99-0.66
			c1.37-0.37,2.76-0.69,4.07-1.24c1.49-0.63,2.74-1.55,4.11-2.39c-0.6,0.37-1.73,0.44-2.42,0.62c-0.73,0.2-1.76,0.27-2.41,0.67
			c-1.24,0.76-2.38,1.61-3.7,2.21c-0.2,0.09-0.4,0.18-0.6,0.26c-0.92,0.36-0.24,0.19,2.03-0.53c-0.37-0.01-0.76,0.09-1.13,0.11
			c-0.76,0.04-1.52,0.02-2.28-0.06c-3.23-0.33-6.08-1.76-9.09-2.82c-2.96-1.04-5.5-0.52-8.43,0.27c-2.99,0.8-5.51,1.72-7.89,3.77
			c0.08-0.07,0.68-0.16,0.71-0.17c0.57-0.15,1.14-0.3,1.71-0.45C4.85,12.3,6.12,12.24,6.63,11.8L6.63,11.8z"/>
	</g>
</g>
<g>
	<g>
		<path class="st3" d="M7.09,20.98c1.11-0.95,2.27-1.81,3.61-2.42c0.45-0.2,0.92-0.33,1.37-0.53c-1.02,0.3-2.04,0.59-3.06,0.89
			c0.22-0.03,0.44-0.05,0.66-0.05c0.81-0.04,1.62,0.03,2.42,0.19c3.09,0.63,5.85,2.35,8.95,3c3.16,0.67,5.94,0.16,8.99-0.66
			c1.37-0.37,2.76-0.69,4.07-1.24c1.49-0.63,2.74-1.55,4.11-2.39c-0.6,0.37-1.73,0.44-2.42,0.62c-0.73,0.2-1.76,0.27-2.41,0.67
			c-1.24,0.76-2.38,1.61-3.7,2.21c-0.2,0.09-0.4,0.18-0.6,0.26c-0.92,0.36-0.24,0.19,2.03-0.53c-0.37-0.01-0.76,0.09-1.13,0.11
			c-0.76,0.04-1.52,0.02-2.28-0.06c-3.23-0.33-6.08-1.76-9.09-2.82c-2.96-1.04-5.5-0.52-8.43,0.27c-2.99,0.8-5.51,1.72-7.89,3.77
			c0.08-0.07,0.68-0.16,0.71-0.17c0.57-0.15,1.14-0.3,1.71-0.45C5.32,21.48,6.58,21.42,7.09,20.98L7.09,20.98z"/>
	</g>
</g>
<g>
	<g>
		<path class="st3" d="M7.09,30.16c1.11-0.95,2.27-1.81,3.61-2.42c0.45-0.2,0.92-0.33,1.37-0.53c-1.02,0.3-2.04,0.59-3.06,0.89
			c0.22-0.03,0.44-0.05,0.66-0.05c0.81-0.04,1.62,0.03,2.42,0.19c3.09,0.63,5.85,2.35,8.95,3c3.16,0.67,5.94,0.16,8.99-0.66
			c1.37-0.37,2.76-0.69,4.07-1.24c1.49-0.63,2.74-1.55,4.11-2.39c-0.6,0.37-1.73,0.44-2.42,0.62c-0.73,0.2-1.76,0.27-2.41,0.67
			c-1.24,0.76-2.38,1.61-3.7,2.21c-0.2,0.09-0.4,0.18-0.6,0.26c-0.92,0.36-0.24,0.19,2.03-0.53c-0.37-0.01-0.76,0.09-1.13,0.11
			c-0.76,0.04-1.52,0.02-2.28-0.06c-3.23-0.33-6.08-1.76-9.09-2.82c-2.96-1.04-5.5-0.52-8.43,0.27c-2.99,0.8-5.51,1.72-7.89,3.77
			c0.08-0.07,0.68-0.16,0.71-0.17c0.57-0.15,1.14-0.3,1.71-0.45C5.32,30.66,6.58,30.59,7.09,30.16L7.09,30.16z"/>
	</g>
</g>
</svg>
