<?xml version="1.0" encoding="utf-8"?>
<!-- Generator: Adobe Adobe Illustrator 24.2.0, SVG Export Plug-In . SVG Version: 6.00 Build 0)  -->
<svg version="1.1" id="Layer_1" xmlns="http://www.w3.org/2000/svg" xmlns:xlink="http://www.w3.org/1999/xlink" x="0px" y="0px"
	 width="40px" height="40px" viewBox="0 0 40 40" style="enable-background:new 0 0 40 40;" xml:space="preserve">
<style type="text/css">
	.st0{fill:none;stroke:#F74EA7;stroke-miterlimit:10;}
	.st1{fill:#FFFFFF;}
	.st2{fill:#F82790;}
	.st3{fill:#F62C8D;}
	.st4{fill:#F52D8D;}
	.st5{fill:#F42E8D;stroke:#F52D8D;stroke-miterlimit:10;}
	.st6{opacity:0.5686;stroke:#000000;stroke-miterlimit:10;}
	.st7{opacity:0.5686;fill:#FFFFFF;stroke:#FFFFFF;stroke-miterlimit:10;}
</style>
<g>
	<g>
		<path class="st3" d="M5.43,12.08c1.11-0.95,2.27-1.81,3.61-2.42c0.44-0.2,0.93-0.44,1.4-0.54c-0.39,0.13-0.77,0.25-1.16,0.38
			C9.5,9.48,9.72,9.46,9.94,9.46c0.81-0.04,1.62,0.03,2.42,0.19c3.09,0.63,5.85,2.35,8.95,3c2.77,0.59,5.32,0.31,8.02-0.41
			c1.05-0.28,2.1-0.55,3.1-0.98c1.49-0.63,2.74-1.55,4.11-2.39c-0.81,0.5-2.08,0.27-2.9,0.78c-1.24,0.76-2.38,1.61-3.7,2.21
			c-0.17,0.08-1.25,0.36-0.51,0.25c-0.38,0.05-0.75,0.09-1.13,0.11c-0.76,0.04-1.52,0.02-2.28-0.06c-3.23-0.33-6.08-1.76-9.09-2.82
			c-2.58-0.91-4.89-0.67-7.46,0.02c-2.63,0.71-4.84,1.71-6.93,3.5C3.21,12.28,4.73,12.68,5.43,12.08L5.43,12.08z"/>
	</g>
</g>
<g>
	<g>
		<path class="st3" d="M5.89,21.26c1.11-0.95,2.27-1.81,3.61-2.42c0.44-0.2,0.93-0.44,1.4-0.54c-0.39,0.13-0.77,0.25-1.16,0.38
			c0.22-0.03,0.44-0.05,0.66-0.05c0.81-0.04,1.62,0.03,2.42,0.19c3.09,0.63,5.85,2.35,8.95,3c2.77,0.59,5.32,0.31,8.02-0.41
			c1.05-0.28,2.1-0.55,3.1-0.98c1.49-0.63,2.74-1.55,4.11-2.39c-0.81,0.5-2.08,0.27-2.9,0.78c-1.24,0.76-2.38,1.61-3.7,2.21
			c-0.17,0.08-1.25,0.36-0.51,0.25c-0.38,0.05-0.75,0.09-1.13,0.11c-0.76,0.04-1.52,0.02-2.28-0.06c-3.23-0.33-6.08-1.76-9.09-2.82
			c-2.58-0.91-4.89-0.67-7.46,0.02c-2.63,0.71-4.84,1.71-6.93,3.5C3.67,21.46,5.2,21.85,5.89,21.26L5.89,21.26z"/>
	</g>
</g>
<g>
	<g>
		<path class="st3" d="M5.89,30.44c1.11-0.95,2.27-1.81,3.61-2.42c0.44-0.2,0.93-0.44,1.4-0.54c-0.39,0.13-0.77,0.25-1.16,0.38
			c0.22-0.03,0.44-0.05,0.66-0.05c0.81-0.04,1.62,0.03,2.42,0.19c3.09,0.63,5.85,2.35,8.95,3c2.77,0.59,5.32,0.31,8.02-0.41
			c1.05-0.28,2.1-0.55,3.1-0.98c1.49-0.63,2.74-1.55,4.11-2.39c-0.81,0.5-2.08,0.27-2.9,0.78c-1.24,0.76-2.38,1.61-3.7,2.21
			c-0.17,0.08-1.25,0.36-0.51,0.25c-0.38,0.05-0.75,0.09-1.13,0.11c-0.76,0.04-1.52,0.02-2.28-0.06c-3.23-0.33-6.08-1.76-9.09-2.82
			c-2.58-0.91-4.89-0.67-7.46,0.02c-2.63,0.71-4.84,1.71-6.93,3.5C3.67,30.63,5.2,31.03,5.89,30.44L5.89,30.44z"/>
	</g>
</g>
</svg>
